<svg viewBox="0 0 55 55" xmlns="http://www.w3.org/2000/svg">
    <g fill="#FFFFFF">
      <path d="M40.16,17.92a5.38,5.38,0,0,0-3.08-3.08,9,9,0,0,0-3-.56c-1.71-.08-2.23-.09-6.56-.09s-4.85,0-6.56.09a9,9,0,0,0-3,.56,5.38,5.38,0,0,0-3.08,3.08,9,9,0,0,0-.56,3c-.08,1.71-.09,2.23-.09,6.56s0,4.85.09,6.56a9,9,0,0,0,.56,3,5.38,5.38,0,0,0,3.08,3.08,9,9,0,0,0,3,.56c1.71.08,2.23.09,6.56.09s4.85,0,6.56-.09a9,9,0,0,0,3-.56,5.38,5.38,0,0,0,3.08-3.08,9,9,0,0,0,.56-3c.08-1.71.09-2.23.09-6.56s0-4.85-.09-6.56A9,9,0,0,0,40.16,17.92ZM27.5,35.84a8.34,8.34,0,1,1,8.34-8.34A8.34,8.34,0,0,1,27.5,35.84Zm8.67-15.06a1.95,1.95,0,1,1,1.95-1.95A1.95,1.95,0,0,1,36.17,20.78Z">
      </path>
      <circle cx="27.5" cy="27.5" r="5.41"></circle>
      <path d="M27.5,0A27.5,27.5,0,1,0,55,27.5,27.5,27.5,0,0,0,27.5,0ZM43.64,34.19a11.92,11.92,0,0,1-.75,3.94,8.3,8.3,0,0,1-4.75,4.75,11.92,11.92,0,0,1-3.94.75c-1.73.08-2.28.1-6.69.1s-5,0-6.69-.1a11.92,11.92,0,0,1-3.94-.75,8.3,8.3,0,0,1-4.75-4.75,11.92,11.92,0,0,1-.75-3.94c-.08-1.73-.1-2.28-.1-6.69s0-5,.1-6.69a11.92,11.92,0,0,1,.75-3.94,8.3,8.3,0,0,1,4.75-4.75,11.92,11.92,0,0,1,3.94-.75c1.73-.08,2.28-.1,6.69-.1s5,0,6.69.1a11.92,11.92,0,0,1,3.94.75,8.3,8.3,0,0,1,4.75,4.75,11.92,11.92,0,0,1,.75,3.94c.08,1.73.1,2.28.1,6.69S43.72,32.46,43.64,34.19Z">
      </path>
    </g>
</svg>
